<mxfile host="app.diagrams.net" modified="2021-12-10T11:59:41.031Z" agent="5.0 (Windows NT 10.0; Win64; x64) AppleWebKit/537.36 (KHTML, like Gecko) Chrome/96.0.4664.93 Safari/537.36" etag="0mfVA_zd9qzJr8v2q0r-" version="15.9.4" type="github">
  <diagram id="9TAz_1H400u0ACSNHKao" name="Page-1">
    <mxGraphModel dx="2046" dy="845" grid="0" gridSize="10" guides="1" tooltips="1" connect="1" arrows="1" fold="1" page="0" pageScale="1" pageWidth="850" pageHeight="1100" math="0" shadow="0">
      <root>
        <mxCell id="0" />
        <mxCell id="1" parent="0" />
        <mxCell id="qve0bd57VHzFd3FHXnv2-11" style="edgeStyle=none;curved=1;rounded=0;sketch=1;hachureGap=4;orthogonalLoop=1;jettySize=auto;html=1;exitX=0.25;exitY=1;exitDx=0;exitDy=0;entryX=0.5;entryY=0;entryDx=0;entryDy=0;fontFamily=Lucida Console;fontSize=16;endArrow=open;startSize=14;endSize=14;sourcePerimeterSpacing=8;targetPerimeterSpacing=8;" edge="1" parent="1" source="qve0bd57VHzFd3FHXnv2-1" target="qve0bd57VHzFd3FHXnv2-3">
          <mxGeometry relative="1" as="geometry">
            <Array as="points">
              <mxPoint x="-110" y="136" />
              <mxPoint x="-87" y="124" />
            </Array>
          </mxGeometry>
        </mxCell>
        <mxCell id="qve0bd57VHzFd3FHXnv2-1" value="1. Setting Up Laravello Project" style="text;strokeColor=none;fillColor=none;html=1;align=center;verticalAlign=middle;whiteSpace=wrap;rounded=0;sketch=1;hachureGap=4;fontFamily=Lucida Console;fontSize=20;labelBackgroundColor=none;" vertex="1" parent="1">
          <mxGeometry x="-362" y="77" width="400" height="30" as="geometry" />
        </mxCell>
        <mxCell id="qve0bd57VHzFd3FHXnv2-6" style="edgeStyle=none;curved=1;rounded=0;sketch=1;hachureGap=4;orthogonalLoop=1;jettySize=auto;html=1;exitX=0.25;exitY=0;exitDx=0;exitDy=0;fontFamily=Lucida Console;fontSize=16;endArrow=open;startSize=14;endSize=14;sourcePerimeterSpacing=8;targetPerimeterSpacing=8;" edge="1" parent="1" source="qve0bd57VHzFd3FHXnv2-3" target="qve0bd57VHzFd3FHXnv2-1">
          <mxGeometry relative="1" as="geometry" />
        </mxCell>
        <mxCell id="qve0bd57VHzFd3FHXnv2-3" value="&lt;div&gt;composer create-project laravel/laravel=7.12.0 my_first_project_lrvl_vue --prefer-dist&lt;/div&gt;&lt;div&gt;cd my_first_project_lrvl_vue&lt;/div&gt;&lt;div&gt;composer require nuwave/lighthouse=4.15.0&lt;/div&gt;&lt;div&gt;composer require mll-lab/laravel-graphql-playground=2.3.0&lt;/div&gt;&lt;div&gt;composer require laravel/telescope=3.5.0&lt;/div&gt;&lt;div&gt;composer require laravel/ui=^2.0&lt;/div&gt;&lt;div&gt;composer require --dev barryvdh/laravel-ide-helper=2.7.0&lt;/div&gt;" style="rounded=0;whiteSpace=wrap;html=1;labelBackgroundColor=none;sketch=1;hachureGap=4;fontFamily=Lucida Console;fontSize=20;" vertex="1" parent="1">
          <mxGeometry x="-435" y="164" width="1117" height="261" as="geometry" />
        </mxCell>
        <mxCell id="qve0bd57VHzFd3FHXnv2-12" value="2. onfig environÃ¶ent variables&amp;nbsp; .env file" style="text;strokeColor=none;fillColor=none;html=1;align=center;verticalAlign=middle;whiteSpace=wrap;rounded=0;labelBackgroundColor=none;sketch=1;hachureGap=4;fontFamily=Lucida Console;fontSize=20;" vertex="1" parent="1">
          <mxGeometry x="-362" y="469" width="521" height="21" as="geometry" />
        </mxCell>
        <mxCell id="qve0bd57VHzFd3FHXnv2-15" value="&lt;div style=&quot;font-family: consolas, &amp;quot;courier new&amp;quot;, monospace; font-size: 14px; line-height: 19px;&quot;&gt;&lt;div&gt;DB_CONNECTION=mysql&lt;/div&gt;&lt;div&gt;DB_HOST=127.0.0.1&lt;/div&gt;&lt;div&gt;DB_PORT=3306&lt;/div&gt;&lt;div&gt;DB_DATABASE=laravel&lt;/div&gt;&lt;div&gt;DB_USERNAME=root&lt;/div&gt;&lt;div&gt;DB_PASSWORD=&lt;/div&gt;&lt;/div&gt;" style="rounded=0;whiteSpace=wrap;html=1;labelBackgroundColor=default;sketch=1;hachureGap=4;fontFamily=Lucida Console;fontSize=20;align=left;horizontal=1;verticalAlign=top;fontColor=default;" vertex="1" parent="1">
          <mxGeometry x="-437" y="490" width="970" height="316" as="geometry" />
        </mxCell>
        <mxCell id="qve0bd57VHzFd3FHXnv2-16" value="" style="shape=stencil(lZTdboMwDIWfhtujJE7i5Lrr3qNS6UBjUFG6n7dfEELDbGTlzkn8kfj44IIOt+p0LQujbkPfvZYf9XmoCnoqjKnbquzrIUUFHQs6XLq+fOm7e3ue1tfTmDlGb937+IXPiVNQaoSM+lptPE/pTd0u0g2iE+kOXmfSFdiLfKtgzTZABE/yAgbbDMCIsgBP0H4bsB7OCIAdOG4DzkFbAYSQrSE9wEQBxDDL9jeQapAqaZVvAytE3nMFE0gWET1CRtckipOdjqk1IQMwwgpQcLQNBPVLVwZxBjAgKVOwMBn3pWOrJaChMioFD5IA52VNLw4rM+VlDXE254PuG0WMuwADzbsAQtS7ADcb4VGA1z/1P8DC/ptECn5m2qVummkkLs/XMzBtTfOTjt8=);fillColor=none;sketch=0;labelBackgroundColor=default;hachureGap=4;fontFamily=Lucida Console;fontSize=20;fontColor=default;" vertex="1" parent="1">
          <mxGeometry x="-254" y="549" width="158" height="11.875" as="geometry" />
        </mxCell>
        <mxCell id="qve0bd57VHzFd3FHXnv2-17" value="" style="shape=stencil(lVXbbsIwDP2avlqJnYvzzNh/IFFGta5FBXb5+7nqpuGCPOUtTc5p7OPjuKHN+bg7tQ2682UaX9uPbn85NvTUIHbDsZ26i6wa2ja0OYxT+zKN12G/fJ92M3JevY3v8x8+F54D52YSuq/VxvMC77vhBh4hxwq4Rwhe4dHEo4eUFT5BIAOfwSeFZ/AGniR+VnjvIBmEEAH1BT4AsSEQAa9usENKCFFXQERg44bs1iFJVawc8p1IWMwcmCChIhCZOXCGQpqQf7N6SCiSovZFQJsQIGiVQjJVKgmidqpU5se7jwkMqAuXbGuUAnHlVbvS3t01W45mO0hMWcvEHtBKIgDrQrAtEzOQ9kax3cciis5BlLZCyh6K1rXUNkSx7RqFUFZNbT9LYjYMVQxCyKmKIU0ZqIrhxVB1UfkIEesY8v7mfxiy+JsWh67vl2Fze76eLrK1TCbafgM=);fillColor=none;sketch=0;labelBackgroundColor=default;hachureGap=4;fontFamily=Lucida Console;fontSize=20;fontColor=default;" vertex="1" parent="1">
          <mxGeometry x="-102" y="546" width="29" height="20" as="geometry" />
        </mxCell>
        <mxCell id="qve0bd57VHzFd3FHXnv2-18" value="Text" style="text;strokeColor=none;fillColor=none;html=1;align=center;verticalAlign=middle;whiteSpace=wrap;rounded=0;labelBackgroundColor=default;sketch=1;hachureGap=4;fontFamily=Lucida Console;fontSize=20;fontColor=default;" vertex="1" parent="1">
          <mxGeometry x="31" y="353" width="60" height="30" as="geometry" />
        </mxCell>
        <mxCell id="qve0bd57VHzFd3FHXnv2-19" value="if you use xampp or mamp donz toch db_host and db_port" style="text;strokeColor=none;fillColor=none;html=1;align=center;verticalAlign=middle;whiteSpace=wrap;rounded=0;labelBackgroundColor=default;sketch=1;hachureGap=4;fontFamily=Lucida Console;fontSize=20;fontColor=default;" vertex="1" parent="1">
          <mxGeometry x="-69" y="522" width="239" height="60" as="geometry" />
        </mxCell>
        <mxCell id="qve0bd57VHzFd3FHXnv2-20" value="" style="shape=stencil(fVTLcsIwDPyaXHds2bKtM23/gxlCyZQSBujr7+tMJoAC0U1xdi2t1lITVufd+tg25M6XU//R/nSby64JLw1Rd9i1p+5Soya8NmG17U/t+6n/OmzG7+N6QA7RZ/893PA78hycG0jk/mYHbyN83x0UPBcF95C4DCdQUPAEycvwiOT17dG8nlGyxhdEo/oClxS+ZoxpGe8doi4o+EnRcwJBdH9CzekNQpqXFBnOkOwFrA1jDyeGBQFJl8TVBKNJJCDWphGyoSEwos6QCrJlM6GQImSe2vDcZ4egjS4OyfCBC0gbV9jUkBiiCVIHwdCQA4JoQoQ3fMgCmRGyaVyJ06xcCQJniC4Cr43zzp5moelx3qUgQ3XVOHt9UhCMvkqaT1A9KWwQCnzUBAYbb+NW8ZVwHcKFoX7YeQ9e1+C2MLfdfj/u2/v/8wVbj8blHF7/AQ==);fillColor=none;sketch=0;labelBackgroundColor=default;hachureGap=4;fontFamily=Lucida Console;fontSize=20;fontColor=default;" vertex="1" parent="1">
          <mxGeometry x="-285" y="586" width="170.5" height="51.625" as="geometry" />
        </mxCell>
        <mxCell id="qve0bd57VHzFd3FHXnv2-23" value="its your choise" style="text;strokeColor=none;fillColor=none;html=1;align=center;verticalAlign=middle;whiteSpace=wrap;rounded=0;labelBackgroundColor=default;sketch=1;hachureGap=4;fontFamily=Lucida Console;fontSize=20;fontColor=default;" vertex="1" parent="1">
          <mxGeometry x="-51" y="648" width="60" height="30" as="geometry" />
        </mxCell>
        <mxCell id="qve0bd57VHzFd3FHXnv2-24" value="" style="shape=stencil(lZbZcsIwDEW/Jq93bMuL/Ezb/+hMoWRKgQG6/X2VZliUgErejNGxLOlKcUOz/fJ5O2+C2x92m7f5V/tyWDb00ITQrpfzXXuQVUOPDc0Wm938dbf5WL/0v7fPnWW3et98did89xwxQumo4H76nYCQ/jaeevtVu760r6hB2Ts4d9s+Zvgp56cAYmWfkdiwjyB9H0Yqhj0jR2XvxWO+DeSAmjWQUasBFFSnIw5gAyiSER2CxFAsIKGSAigiW0CF8wqI7liWqwAHFH2lmJCNsnGB02lNHj7cBqpDGQCiFKPQNSJqIHuEaABSJh10TohGDFWyrqWaK7IhDe9O2j8SheDIdOGTBqSWVtQJTquviL79lLyyQzYKwQmsY2APNq4kYspafWe13KlvpmMarndQRHBTABkCNU4BZCrRJA9UjvK/E5AWjpM8+Ao/isGaZF4aTOubpUUMaSQkLSWW0WrUTdprUGc2lTRqhk6LRjOMzq8yJ42GJpTB+aeyX1f2cNJXGVJWBSJYJ7SbCIYDiWAAXEyEO1XxH0Gj9hwTsjh/3hftatW/Di7/Hz4HZKt/StDjLw==);fillColor=none;sketch=0;labelBackgroundColor=default;hachureGap=4;fontFamily=Lucida Console;fontSize=20;fontColor=default;" vertex="1" parent="1">
          <mxGeometry x="-131.75" y="621.3333333333333" width="20.25" height="29.666666666666742" as="geometry" />
        </mxCell>
        <mxCell id="qve0bd57VHzFd3FHXnv2-26" value="&lt;font style=&quot;font-size: 12px&quot;&gt;after that you go to create data base in php my admin with the same name&lt;/font&gt;" style="ellipse;whiteSpace=wrap;html=1;labelBackgroundColor=none;sketch=1;hachureGap=4;fontFamily=Lucida Console;fontSize=20;fontColor=default;" vertex="1" parent="1">
          <mxGeometry x="250" y="586" width="217" height="161" as="geometry" />
        </mxCell>
        <mxCell id="qve0bd57VHzFd3FHXnv2-27" value="" style="shape=stencil(lZrZct1GDES/Rq9Tsy/PjvMfrrIcq6JILtnZ/j5g5CuLDd5D6+1abpAzmAbQwPCmvPv6+cOX25scv357evz99u+7j98+35RfbnK+e/h8+3T3zX7dlPc35d2nx6fb354e/3z4+PzvLx825Pbrj8e/tif882y3Qm2bUY7/fv9DDa3+/5dfn/H3dw87/MxvwaccWtobtFAmGKzQ196ghzquG+QaclGDla8blBiW7HmE2cBghjT3BjMM2ENtYfa9wUIvtRJa3BmkGEOM1y16DH3qKyqsqY9Qum6irusGI4dU1U0J3DT6ZcWvj5oMlvNrxpObOcQ9N+YKgwxq6Ps9zH5557FBV27YOxOwb0496jFDhjesGMo+gkYNkSIuKTf6S4gcG1jI7b3UW8iwh1XUS8au77s6NqiaNZr5LYFB0xg1xkfyknFp/4ZqmwYumcEYewNLG7SHoXuo5gby0lTy1XTZ1TUDOQdLJIvfIOQr5lY66XU51xeDFhItaSmXSgmF3yDUKCkMOuml52DpNkKImsHaF4g8LyXjqsHeS7mHCZt+lUpfLNolCH92TS8h8pO7zpaq6KidX3Nk9rmTs0JZoUCYgeT7ZImJj1qycRohU8g5uqaOpd0HRGrMvqn8TpbQid/DLalcBMs1A11S4YMbyiVTOIXo2jX1JUvolJiaO4eTbFy0BJkBlqCsbjVVR3uO6iQjI1VdVxMXMm8OpzRCouc3J1pDBAdN56ATfH7j85OW9BN81FhmvOkk1XqMP/A/4l3UnOKj8gHxrpif4Kum3xO8U88LtfNI+nzLZJDdR9RUag4GPvep1WCidjFpLhE/Ly88xjfdr0kTSEHd8X9grelZ12MHDll360VEP14C6LjbcbKlYf5pQ8+rofAyMSr+qWEAH1pzYhObBNOudb+ewt1dcuogDOBPi1oyMsqVOjU/pDBhv9Xl24T1wtpZOV8rSMC3WpU/8eKwY3zWoULEeDfd3fX5FO81hlEET/WlLI2XiHwrSzVBxNajuE4iIv9LV/6bgiB803qdUXGUqvWrXAh7jC8aLy8BdIx3/DedSP509dHyFfAnO6k7sSHY0qvWa/K/vV7i3QQWyVDbnwSMab4IEW8OHE4kUshnVyI3A4hhM1DdevKG4pJEwimCkcwLXdx0cgYsdLMbnZgBBUJyhcYMEmSK5Cd9mLms4ZnKvAZbTi6TjjBpelqV2QPHJlvzIqMfrMR2QrJ+rsTJVXpr4HBa3LSw0jxj6tNrmLBbJ1vP4EI3hne/doI3vxjSlE1TinV9VCL16Q2b/6oFoHHBVtYzaw7kZIKtuuminRusvWjzNXHgVHwvS72pz2rcK5eDtElD8HyQlxflNIfPoYN3PL5gr+DxFYl2hMfa6PCW4qisOLxxjUqpww+ccB7hqVfz+Im9gscvnFY6/FbE3rL+rUq+ZT0ng0cntX8w/ApehInhF65f55oVe5GsUs9SFfWmWQvilquQb9pKWRmAZOVumLZsRRXdDaONP1RxNXduCoMUwNE4nRSAtkaGpxuydDDfp3yS3J1GRv4kzeaGZ/9oK1IwvpKWLmtm6FYz6flas0T8SZr/S8ebgKjxuF0eg3+ixqM1k7R+J8CsGaZ8Hp2KySiZo7sVq3h940Zjle98o5br2vEyM+r51hEG+l8v6ebFA9fwMiria/ToWt+I98NuPY17/aj6pCVsNZ1/WsY+0Pm/mSJC/8v5toqzE8efxsLWNxQdu0wXL22gfkjuvFhOuvzT1kn+19Ent9Vu9NzP9J6sZxvmUp+v9bqb/2n2o/7pHfVGcevhS8Ki+adPnqW59a8Tfa69SER97sYgg/WVx2ecDXt8wf16fEX+e3xD/eDxHWfVHj+w3nn85Nmzwy+chTv8jPzplcMnvAD2+HzSKku8zHJRXNdaa/kAqWI9ch+zzYbXy250OzvPwnXuYPhBs3Z31TRwtu0mD3Pi101V9arhqX+smh/mOolfj6eJm8Nvl98Yv6LPF38U5K82E/KtuavWjP1jc1/5ZYzH5tZv+YruEt3HlgX53J0/C8b7uOzuFR4/CXTfHFbsj6bWoxP8+fex9uPHx7Wf7u7vn7/Nff3/+jGu/en5Q97y/j8=);fillColor=none;sketch=0;labelBackgroundColor=default;hachureGap=4;fontFamily=Lucida Console;fontSize=20;fontColor=default;" vertex="1" parent="1">
          <mxGeometry x="-73" y="496.5" width="275" height="215.25" as="geometry" />
        </mxCell>
        <mxCell id="qve0bd57VHzFd3FHXnv2-28" value="" style="shape=stencil(lZTbbsMgDIafhlsLMOZw3XXvUanpEi1LqjTd4e3nCHUbWYLkO2M+8AHzKzzc2tO1UVbf5ml8bT6689wqfFLWdkPbTN3MlsKjwsNlnJqXabwP57y+nhZysd7G9+WGz3xOg9bLIau/ssNYoOx5znzfDQUfbME7MGEfR9CmwOu3e3BUZgMh7eMREFc4+X2cSzNlsT/Vb/OcjoTn7RQkPAE5CZ8gSnhEiJJ8MIBHAe8MGBHP+VgJ78FK6nUJTBLwxPNAEp7AGAkfwUvmxwvn0/P8SOr1CXTJ1/9LsBDL/vCDUIX34Mv+GHpM1Pb/1eDLAByhllEksCv50fUIEWJZMtUFK7l1j0J8TPm2SOj/EqrX78DGrwBfur7P+v13fy3Y7Mpij8dv);fillColor=none;sketch=0;labelBackgroundColor=default;hachureGap=4;fontFamily=Lucida Console;fontSize=20;fontColor=default;" vertex="1" parent="1">
          <mxGeometry x="187" y="651" width="46.5" height="8" as="geometry" />
        </mxCell>
        <mxCell id="qve0bd57VHzFd3FHXnv2-29" value="" style="shape=stencil(lVXLcsIwDPyaXDW2/JLOlP4HM0DJlAID9PX3VRpMkQma6c1xdm2tvJK6MDttFodVh+50Pu5fV5/98rzpwlOH2O82q2N/llUX5l2YrffH1ctx/75bjt+HxYAcVm/7j+GEr5GHBTwOLHTf4w4Bxt+N5xG/7Xe3eIIcFB7Bucf4UICLwjsTHxNQbPDoDTxDwQZf0mN8ypDcP/A5tPEgeANfPHhW+AicDXxuz7fzTxKuPt8jRCMgkoSSJhTIxguwg6gzJBIubz5NCG1IwUM2QuIM2WuCuKoYBALSJhKbZH5M8O7qsspICGjFxBD1OySCYKmW31qEWIWtG8QI2qmZ7Ly66pxKKAiBzKduQiqSJst8DF5nqRCwEdIQQNMtPBTDrjlBauwdwRkaEgNpM1GuO9OEWOvlSmBAQ0MkcFoD+5qGaYIH0mll6XmG6JDbniQENkRLvTjtb6kpq6gxQWxuiKY1PNcueiWkWrXTBLwTnc0CEs26zXCpnXASf1egNzV7Icjib2yt++12nHq3/9sxJ1vjiAzzHw==);fillColor=none;sketch=0;labelBackgroundColor=default;hachureGap=4;fontFamily=Lucida Console;fontSize=20;fontColor=default;" vertex="1" parent="1">
          <mxGeometry x="222" y="641.8" width="22.125" height="26.700000000000045" as="geometry" />
        </mxCell>
        <mxCell id="qve0bd57VHzFd3FHXnv2-30" value="" style="shape=image;html=1;verticalAlign=top;verticalLabelPosition=bottom;labelBackgroundColor=#ffffff;imageAspect=0;aspect=fixed;image=https://cdn3.iconfinder.com/data/icons/minimalisticons/28/notification-bell-128.png;sketch=1;hachureGap=4;fontFamily=Lucida Console;fontSize=12;fontColor=default;" vertex="1" parent="1">
          <mxGeometry x="-424" y="656" width="34" height="34" as="geometry" />
        </mxCell>
        <mxCell id="qve0bd57VHzFd3FHXnv2-31" value="" style="shape=stencil(lZXNbsMgEISfxtcRsMDCOW3fI1KcxmoaR0769/bFsnC7jrNSbhjPZy8zCzS0uRy257Zx5nId+rf2q9tdDw09Nc51p0M7dNcyaui5oc2+H9rXof847abn83ZUjqP3/nP8wvfEGRgzQs78LCZeJvmxO2lyD+MfkFsDeuTzNsEmTU9B6J2rM6t6C45SnxEUPSGx0BPDuvv6iJilPQFGqT8jyXqCQ9TqJzBJIMOzAjCy/EP0YAUoBgYvgQxWInMML//ABGsVT0tE0iQONZZ1ICLLFDjB0H3AWzjZRqzHXFLyTgDJICq5+VxjmgELr2yEcNNJydUi14EEH5ZAVtYQXa14BkqzKDnEWD2ZgYCoAGxuXNJ3A/sblxKi4lLJdeFSNrDKossSrUw6OxgNYJBcQyZkpaRsly7luR3XgVD31wyUKJVesmbllFyewmXwd4Lvu+NxugD+v1+e+GVqui3o+Rc=);fillColor=none;sketch=0;labelBackgroundColor=none;hachureGap=4;fontFamily=Lucida Console;fontSize=12;fontColor=default;" vertex="1" parent="1">
          <mxGeometry x="-388" y="679" width="35.5" height="33" as="geometry" />
        </mxCell>
        <mxCell id="qve0bd57VHzFd3FHXnv2-32" value="you can olso use tools like &quot;workbench&quot;" style="text;strokeColor=none;fillColor=none;html=1;align=center;verticalAlign=middle;whiteSpace=wrap;rounded=0;labelBackgroundColor=none;sketch=1;hachureGap=4;fontFamily=Lucida Console;fontSize=12;fontColor=default;" vertex="1" parent="1">
          <mxGeometry x="-394" y="719" width="121" height="30" as="geometry" />
        </mxCell>
        <mxCell id="qve0bd57VHzFd3FHXnv2-33" value="" style="shape=stencil(lVfLctswDPwaXTEkQYLkOU3/IzNxak9dO+M4ffx9oWqkCrC9Ht9keVdaAMslNfDTx/blfTOk8HE+Hb9vfu1ez9uBvwwp7Q7bzWl31quBnwd+ejueNt9Ox8/D6/T7/WVEjlc/jj/HJ/yeeJG4jKQU/kw3AoXw78bXCb7fHQw8Wnik0G/DA1ULr8QQnqN9+j08B4NPiVJD+FANnpcn3MLb53OjAvWMf63wuVIpsF7bnlKoZYTvVr8kKnBa1eqRNnfgKj7NapdxJcrpNp6JrZ6q+gE+U3L4RhnoLxQtvqmh4m28eD1N9YN6G0U736YKQf9j8AW0QoIGkOZ+LAShLoBQqGZLUJHA0rFTcIROBdSgQ67dELo2FUjSrna7KnukBlzNGhKOkEjAG1hdw5bAlEHRWVOnWUKmAgadZfbZQijE4A3lIhe7mosBQXy29EoBeVUXf/cEAeEiefbyQmiz368TGiX3BjULGFyNVKInoLyrPMfVitDApDUfxBJiwBtOrZQfZHSK8oioMVT4kbI1VfiiTwxyr/FFYxtVYD/NIXaSKswNJXRHkDlJrhMW/69WBMo+JVTXVqYEDK5JFxwBB40SkpV0J/uUkG3RY1VgkSrBzUFHKbgGsTWouwRNWqjZGqrOAW1B1YelLipoDT1SOEl6LECSmg9LDQaUrkoQR5B5I75OUPdbScLUwQJSI7iNVyI8OIzOcZICjDLdovzRqs19u05I3nxFz55gPaj7gzWfbgEF1cC+hjunvXFPY09Ax9VxBbs3ZGpoDjKvrxUB2Xvc0y4IyEuac+4IrQRGg2vUHiKstoObDL34//3zttvvp8+n9f/+e0lvTd9a/PwX);fillColor=none;sketch=0;labelBackgroundColor=none;hachureGap=4;fontFamily=Lucida Console;fontSize=12;fontColor=default;" vertex="1" parent="1">
          <mxGeometry x="-409.25" y="688" width="166.75" height="92" as="geometry" />
        </mxCell>
        <mxCell id="qve0bd57VHzFd3FHXnv2-34" value="" style="shape=stencil(tVZBctswDHyNrhgSIEDinCb/yEycWFPXzjhO2v6+UFUpoZhgzENvFIkVCXB3wYFuXvb3z7sBw8vlfPq++zk+XPYDfRsQx+N+dx4vNhrodqCbx9N593Q+vR4f5u/n+ylyGv04vU1/+DXjMgHqhMLw+99MBsx/Z+5mwGE8+gCETD0AKRBLFwCBUg+AFYJ2AQhS7AGk3Jl0QgjsACIoVgBiQGcHUShSAbC4OUiGWO+ACFEcgFWdKkAUSM7FsUDhGmBZOTlwACk1l0CdIiWCkuqqAjvxVkKpU46Qw9fxtn0KVXwAdrQQdSHye3xw/h8DqHTE81Lu68JXhl0Xvq7+l/DOw2Rg6qlkAuoqDYL0nJ5MGrV+I0THgpIt1//HhapfMX9TTYboiJcLYM1kXyliSq2VYlIkR+ytYUX2TVchbcRujuSYbmnEaDl76iq6WOxqiatffApQglgficRNWnk58ZUurWvVr+wDqkB10tZp1MkhhoYZEtxG8BmCQR0ytVlY92Hn6tRsdsM+cY20vbriX11JgPWRbMZt4QVCbQBF3F7T9stSQByCS2PWU1YOX7mxPI1uv2zbmfr0m+hc37RRPjsAexLwZofkd8C4cG0FiEsNc4m8sYGwtVYbvD8/H8fDYX69flzfPldtan7q0u0f);fillColor=none;sketch=0;labelBackgroundColor=none;hachureGap=4;fontFamily=Lucida Console;fontSize=12;fontColor=default;" vertex="1" parent="1">
          <mxGeometry x="-244.375" y="731" width="18.25" height="22" as="geometry" />
        </mxCell>
        <mxCell id="qve0bd57VHzFd3FHXnv2-37" value="ENCONDING : utf8mb4" style="text;strokeColor=none;fillColor=none;html=1;align=center;verticalAlign=middle;whiteSpace=wrap;rounded=0;labelBackgroundColor=none;sketch=1;hachureGap=4;fontFamily=Lucida Console;fontSize=12;fontColor=default;" vertex="1" parent="1">
          <mxGeometry x="-216" y="729" width="60" height="30" as="geometry" />
        </mxCell>
        <mxCell id="qve0bd57VHzFd3FHXnv2-39" value="&lt;font style=&quot;font-size: 20px&quot;&gt;3.after that what you need to do will now go and run &quot;php artsan serv&quot;&lt;/font&gt;" style="text;strokeColor=none;fillColor=none;html=1;align=center;verticalAlign=middle;whiteSpace=wrap;rounded=0;labelBackgroundColor=none;sketch=1;hachureGap=4;fontFamily=Lucida Console;fontSize=20;" vertex="1" parent="1">
          <mxGeometry x="-365.5" y="896" width="853" height="21" as="geometry" />
        </mxCell>
      </root>
    </mxGraphModel>
  </diagram>
</mxfile>
